<svg xmlns="http://www.w3.org/2000/svg" width="16" height="16" fill="currentColor" class="bi bi-question-circle rounded-circle" viewBox="0 0 16 16">
    <path  d="M8 15A7 7 0 1 1 8 1a7 7 0 0 1 0 14zm0 1A8 8 0 1 0 8 0a8 8 0 0 0 0 16z"></path>
    <path d="M6.88,11.059 L6.88,13 L9.231,13 L9.231,11.059 Z M8,16 C3.582,16 0,12.418 0,8 C0,3.582 3.582,0 8,0 C12.418,0 16,3.582 16,8 C16,12.418 12.418,16 8,16 Z M5.57,3.51 C4.586,4.043 4.063,4.948 4,6.224 L6.28,6.224 C6.28,5.852 6.408,5.494 6.663,5.149 C6.918,4.804 7.35,4.632 7.961,4.632 C8.581,4.632 9.009,4.772 9.243,5.052 C9.477,5.332 9.594,5.642 9.594,5.982 C9.594,6.277 9.488,6.548 9.278,6.794 L8.821,7.191 L8.245,7.574 C7.677,7.95 7.324,8.282 7.187,8.571 C7.051,8.86 6.966,9.382 6.935,10.139 L9.065,10.139 C9.07,9.781 9.105,9.517 9.168,9.347 C9.268,9.078 9.47,8.843 9.775,8.641 L10.335,8.272 C10.903,7.896 11.287,7.587 11.487,7.345 C11.829,6.947 12,6.456 12,5.874 C12,4.925 11.607,4.209 10.821,3.725 C10.034,3.242 9.047,3 7.858,3 C6.953,3 6.191,3.17 5.57,3.51 Z M5.57,3.513" fill="#00f" fill-rule="even-odd"></path>
</svg>